<svg width="725" height="475" viewBox="0 0 725 475" fill="none" xmlns="http://www.w3.org/2000/svg">
<path d="M723.923 232.449C722.865 230.066 697.324 173.413 640.089 116.174C587.098 63.1743 495.924 0 362.501 0C229.078 0 137.904 63.1744 84.9129 116.174C27.6771 173.413 2.13696 230.066 1.07802 232.449C0.367264 234.047 0 235.777 0 237.526C0 239.275 0.367264 241.004 1.07802 242.602C2.13696 244.986 27.6802 301.623 84.9129 358.85C137.903 411.838 229.081 475 362.501 475C495.921 475 587.098 411.838 640.089 358.85C697.321 301.623 722.865 244.986 723.923 242.602C724.634 241.004 725.001 239.275 725.001 237.526C725.001 235.777 724.634 234.047 723.923 232.449ZM621.763 341.821C549.656 413.605 462.427 450 362.501 450C262.574 450 175.346 413.605 103.239 341.821C72.429 311.198 46.5089 276.022 26.3862 237.524C46.5063 199.016 72.4276 163.83 103.242 133.2C175.349 61.4044 262.574 25 362.501 25C462.427 25 549.653 61.4044 621.76 133.2C652.573 163.831 678.494 199.016 698.615 237.524C678.494 276.023 652.574 311.199 621.763 341.821ZM362.501 100.027C335.306 100.027 308.722 108.092 286.11 123.2C263.498 138.309 245.874 159.784 235.467 184.908C225.06 210.033 222.337 237.68 227.643 264.352C232.948 291.025 246.044 315.525 265.274 334.755C284.503 353.984 309.003 367.08 335.676 372.385C362.348 377.691 389.995 374.968 415.12 364.561C440.245 354.154 461.719 336.53 476.828 313.918C491.936 291.307 500.001 264.722 500.001 237.527C499.96 201.073 485.46 166.123 459.682 140.346C433.905 114.568 398.955 100.069 362.501 100.027ZM362.501 350.027C340.25 350.027 318.5 343.429 299.999 331.068C281.499 318.706 267.079 301.136 258.564 280.579C250.049 260.023 247.822 237.403 252.162 215.58C256.503 193.757 267.218 173.711 282.951 157.978C298.685 142.245 318.73 131.53 340.553 127.189C362.376 122.848 384.996 125.076 405.553 133.591C426.109 142.106 443.679 156.525 456.041 175.026C468.403 193.526 475.001 215.277 475.001 237.527C474.967 267.354 463.104 295.949 442.013 317.04C420.923 338.13 392.327 349.994 362.501 350.027Z" fill="#777777"/>
</svg>
