<?xml version="1.0" encoding="UTF-8"?>
<svg version="1.1" xmlns="http://www.w3.org/2000/svg" width="256" height="256">
<path d="M0 0 C43.56 0 87.12 0 132 0 C117.75999049 43.906696 117.75999049 43.906696 110.60473633 65.37109375 C109.49451752 68.70164457 108.38857846 72.03360249 107.28341389 75.36583328 C106.20852499 78.60414937 105.12940771 81.84105192 104.05078125 85.078125 C103.6561116 86.26931946 103.26144196 87.46051392 102.85481262 88.68780518 C102.49320541 89.76955017 102.13159821 90.85129517 101.7590332 91.96582031 C101.44215042 92.91789368 101.12526764 93.86996704 100.79878235 94.85089111 C100 97 100 97 99 98 C96.65012738 98.23527773 94.29443961 98.41386417 91.9375 98.5625 C90.64714844 98.64628906 89.35679687 98.73007813 88.02734375 98.81640625 C87.02832031 98.87699219 86.02929688 98.93757813 85 99 C85.28875 99.53367187 85.5775 100.06734375 85.875 100.6171875 C89.68596752 108.2655876 89.80244101 114.73514852 88 123 C89.03898437 123.4846875 90.07796875 123.969375 91.1484375 124.46875 C110.74940555 133.8055704 122.92256839 146.06352384 131.140625 166.3203125 C137.08409759 184.85314066 135.02366125 204.00712345 126.32397461 221.20239258 C123.0462977 227.31330313 119.0078397 232.20009828 114 237 C113.33742188 237.69351563 112.67484375 238.38703125 111.9921875 239.1015625 C107.52205675 243.50370647 102.67377137 246.48755232 97.125 249.3125 C96.17161743 249.80097412 96.17161743 249.80097412 95.19897461 250.29931641 C85.79832663 254.8465296 76.58549601 256.54415903 66.1875 256.4375 C65.13651123 256.42920166 64.08552246 256.42090332 63.00268555 256.41235352 C44.81303759 256.01829823 29.80132084 248.93352036 17 236 C16.30261719 235.33613281 15.60523437 234.67226562 14.88671875 233.98828125 C2.15692436 221.01130639 -2.51960349 203.63828085 -2.42236328 185.93115234 C-1.88371958 166.26185602 6.57658507 149.94342494 20.5625 136.375 C25.79142114 131.78951308 31.59638848 128.71817146 37.77734375 125.62890625 C41.03556209 124.06275139 41.03556209 124.06275139 44 122 C43.84144531 121.44828125 43.68289062 120.8965625 43.51953125 120.328125 C41.72629001 112.29224698 42.79152343 105.97028932 47 99 C40.07 98.505 40.07 98.505 33 98 C28.87362757 88.19635665 25.61455444 78.11527092 22.265625 68.02734375 C21.62137404 66.0933972 20.97690023 64.15952488 20.33221436 62.22572327 C18.9889836 58.19447446 17.64775809 54.16256622 16.30810547 50.13012695 C14.58724019 44.95043609 12.86236408 39.77209192 11.13614273 34.59418392 C9.80871741 30.61163691 8.48285207 26.62857204 7.15752411 22.64532661 C6.5215237 20.73413635 5.88515618 18.82306822 5.24842072 16.91212273 C4.36364362 14.25563638 3.48084009 11.5985028 2.59863281 8.94116211 C2.33374557 8.14695358 2.06885834 7.35274506 1.79594421 6.5344696 C0 1.11448451 0 1.11448451 0 0 Z M60.625 107.625 C58.80112622 109.94844013 58.80112622 109.94844013 58.4375 113 C58.76503002 116.14627033 58.76503002 116.14627033 61.125 118.4375 C63.91225693 120.24870485 63.91225693 120.24870485 67.125 120 C70.02189293 119.1925204 70.02189293 119.1925204 71.9375 117.3125 C73.40109489 114.12702876 72.98928968 112.32118677 72 109 C70.93654948 107.01970318 70.93654948 107.01970318 69 106 C65.36968224 105.45931438 63.67785921 105.53620159 60.625 107.625 Z " fill="#FFC648" transform="translate(62,0)"/>
<path d="M0 0 C43.56 0 87.12 0 132 0 C117.75999049 43.906696 117.75999049 43.906696 110.60473633 65.37109375 C109.49451752 68.70164457 108.38857846 72.03360249 107.28341389 75.36583328 C106.20852499 78.60414937 105.12940771 81.84105192 104.05078125 85.078125 C103.6561116 86.26931946 103.26144196 87.46051392 102.85481262 88.68780518 C102.49320541 89.76955017 102.13159821 90.85129517 101.7590332 91.96582031 C101.44215042 92.91789368 101.12526764 93.86996704 100.79878235 94.85089111 C100 97 100 97 99 98 C96.94443339 98.09413687 94.88559819 98.11742998 92.82788086 98.11352539 C92.18399918 98.11367142 91.54011749 98.11381744 90.87672424 98.1139679 C88.73939697 98.11326885 86.60215587 98.10547691 84.46484375 98.09765625 C82.98653715 98.09579204 81.50822993 98.09436815 80.02992249 98.09336853 C76.13201198 98.08954359 72.23413851 98.07971352 68.33624268 98.06866455 C64.36153667 98.05844992 60.38682471 98.0538708 56.41210938 98.04882812 C48.608056 98.03809122 40.80403318 98.02101509 33 98 C28.80409458 88.2352008 25.61101002 78.10459412 22.265625 68.02734375 C21.62137404 66.0933972 20.97690023 64.15952488 20.33221436 62.22572327 C18.9889836 58.19447446 17.64775809 54.16256622 16.30810547 50.13012695 C14.58724019 44.95043609 12.86236408 39.77209192 11.13614273 34.59418392 C9.80871741 30.61163691 8.48285207 26.62857204 7.15752411 22.64532661 C6.5215237 20.73413635 5.88515618 18.82306822 5.24842072 16.91212273 C4.36364362 14.25563638 3.48084009 11.5985028 2.59863281 8.94116211 C2.33374557 8.14695358 2.06885834 7.35274506 1.79594421 6.5344696 C0 1.11448451 0 1.11448451 0 0 Z " fill="#F98483" transform="translate(62,0)"/>
<path d="M0 0 C2.93847653 -0.107834 5.87301151 -0.18721916 8.8125 -0.25 C9.64587891 -0.28351563 10.47925781 -0.31703125 11.33789062 -0.3515625 C17.51310025 -0.45076265 17.51310025 -0.45076265 20 1.8515625 C23.59005761 9.5645769 23.84020661 16.74115274 22 25 C23.03898437 25.4846875 24.07796875 25.969375 25.1484375 26.46875 C44.74940555 35.8055704 56.92256839 48.06352384 65.140625 68.3203125 C71.08409759 86.85314066 69.02366125 106.00712345 60.32397461 123.20239258 C57.0462977 129.31330313 53.0078397 134.20009828 48 139 C47.00613281 140.04027344 47.00613281 140.04027344 45.9921875 141.1015625 C33.50026586 153.40349294 17.06891503 158 0 158 C0 144.14 0 130.28 0 116 C5.04559554 117.68186518 8.48650436 119.38436419 12.8515625 122.171875 C14.97592747 123.26064022 14.97592747 123.26064022 17.03515625 122.26171875 C17.68355469 121.84535156 18.33195312 121.42898437 19 121 C19.96873047 120.55333984 19.96873047 120.55333984 20.95703125 120.09765625 C23.09091833 118.90717188 24.4923966 117.93772656 26 116 C26.46083254 111.61177375 25.59369056 107.30433905 24.49780273 103.05078125 C24.05859375 100.98046875 24.05859375 100.98046875 24 97 C26.03864359 94.77435301 27.663023 93.33369354 30.0625 91.625 C34.49634063 88.23102556 34.49634063 88.23102556 36.390625 83.1796875 C35.83348994 80.59729119 35.09635199 78.39854966 34 76 C33.67 75.01 33.34 74.02 33 73 C32.05640625 72.81824219 32.05640625 72.81824219 31.09375 72.6328125 C30.2378125 72.46523437 29.381875 72.29765625 28.5 72.125 C27.6646875 71.96257812 26.829375 71.80015625 25.96875 71.6328125 C24.9890625 71.42398438 24.009375 71.21515625 23 71 C22.34459229 70.9172583 21.68918457 70.8345166 21.01391602 70.74926758 C15.72107939 69.87644399 15.72107939 69.87644399 13.72412109 67.44921875 C12.67253409 65.47933734 11.78033161 63.50522128 10.9375 61.4375 C9.79829786 58.6650148 8.66307488 56.55648715 7 54 C3.42756625 53.23929634 3.42756625 53.23929634 0 53 C-0.12363227 48.64015539 -0.21434908 44.28123945 -0.2746582 39.92016602 C-0.2997981 38.43691232 -0.33391592 36.95378247 -0.37719727 35.47094727 C-0.43788258 33.33839405 -0.46621116 31.20747795 -0.48828125 29.07421875 C-0.51446533 27.79119873 -0.54064941 26.50817871 -0.56762695 25.1862793 C0 22 0 22 2.46801758 20.24145508 C3.30357178 19.8317749 4.13912598 19.42209473 5 19 C6.16448881 16.09648876 6.16448881 16.09648876 6 13 C4.28784522 9.83251366 3.46264391 9.15421464 0 8 C0 5.36 0 2.72 0 0 Z " fill="#FEC749" transform="translate(128,98)"/>
<path d="M0 0 C0.74886475 0.00523682 1.49772949 0.01047363 2.26928711 0.01586914 C3.07817383 0.0190918 3.88706055 0.02231445 4.72045898 0.02563477 C5.5705957 0.03401367 6.42073242 0.04239258 7.29663086 0.05102539 C8.15063477 0.05553711 9.00463867 0.06004883 9.88452148 0.06469727 C12.00108749 0.07652166 14.11761771 0.0944577 16.23413086 0.11352539 C16.47216797 6.17431641 16.47216797 6.17431641 16.23413086 8.11352539 C13.79663086 10.05102539 13.79663086 10.05102539 11.23413086 11.11352539 C9.9349174 12.21606665 9.9349174 12.21606665 9.79663086 14.92602539 C9.94100586 15.97790039 10.08538086 17.02977539 10.23413086 18.11352539 C11.22541992 18.66911133 12.21670898 19.22469727 13.23803711 19.79711914 C16.23413086 22.11352539 16.23413086 22.11352539 16.82006836 26.00415039 C16.78040606 27.45843476 16.70913787 28.91214167 16.60913086 30.36352539 C16.56852539 31.48114258 16.56852539 31.48114258 16.52709961 32.62133789 C16.45663894 34.45331532 16.34902079 36.28379691 16.23413086 38.11352539 C15.33694336 38.16508789 14.43975586 38.21665039 13.51538086 38.26977539 C-0.69577206 39.56169838 -14.20898675 45.13201457 -23.76586914 56.11352539 C-33.1073906 67.73810708 -37.3729019 82.31096807 -35.76586914 97.11352539 C-33.4884922 110.94579023 -26.39711273 122.99900395 -15.60961914 131.89086914 C-5.8526756 138.83738873 4.46756226 141.70665306 16.23413086 143.11352539 C16.23413086 148.06352539 16.23413086 153.01352539 16.23413086 158.11352539 C-0.39587471 158.92474517 -15.46915654 153.76918008 -28.07836914 142.73852539 C-29.65830996 141.21473756 -31.22174444 139.67359631 -32.76586914 138.11352539 C-33.46325195 137.4496582 -34.16063477 136.78579102 -34.87915039 136.10180664 C-47.60894478 123.12483178 -52.28547263 105.75180624 -52.18823242 88.04467773 C-51.64958872 68.37538141 -43.18928408 52.05695033 -29.20336914 38.48852539 C-23.974448 33.90303847 -18.16948066 30.83169685 -11.98852539 27.74243164 C-8.73030705 26.17627678 -8.73030705 26.17627678 -5.76586914 24.11352539 C-5.92442383 23.56180664 -6.08297852 23.01008789 -6.24633789 22.44165039 C-8.03608488 14.42143081 -7.00763033 8.05458915 -2.76586914 1.11352539 C-1.76586914 0.11352539 -1.76586914 0.11352539 0 0 Z " fill="#FFEF65" transform="translate(111.765869140625,97.886474609375)"/>
<path d="M0 0 C21.78 0 43.56 0 66 0 C58.54546934 23.14827943 50.94891741 46.24474557 43.25 69.3125 C43.02111588 69.99829636 42.79223175 70.68409271 42.55641174 71.39067078 C39.70683137 79.92796855 36.85463926 88.46439236 34 97 C33.34 97 32.68 97 32 97 C27.82596333 84.50101034 23.65352497 72.00148842 19.4831543 59.50127506 C17.54685485 53.69760621 15.60999502 47.89412561 13.671875 42.09106445 C11.80322053 36.49592753 9.93601131 30.90031025 8.06982422 25.3043499 C7.3558348 23.16423632 6.64131538 21.02429949 5.92626953 18.88453865 C4.92862987 15.89882689 3.93283801 12.91250509 2.9375 9.92602539 C2.63827637 9.03194977 2.33905273 8.13787415 2.03076172 7.21670532 C0 1.11405216 0 1.11405216 0 0 Z " fill="#E21759" transform="translate(128,0)"/>
<path d="M0 0 C13.27067947 -0.75117054 25.65776822 4.60763548 35.8359375 12.93359375 C46.01880269 22.65694337 51.96762771 35.51662789 52.29272461 49.53515625 C52.41874053 65.24202911 48.65535568 77.98163057 37.75 89.75 C26.60274842 100.10279267 14.91868081 103.64375629 0 105 C0 96.09 0 87.18 0 78 C5.04559554 79.68186518 8.48650436 81.38436419 12.8515625 84.171875 C14.97592747 85.26064022 14.97592747 85.26064022 17.03515625 84.26171875 C17.68355469 83.84535156 18.33195312 83.42898437 19 83 C19.96873047 82.55333984 19.96873047 82.55333984 20.95703125 82.09765625 C23.09091833 80.90717188 24.4923966 79.93772656 26 78 C26.46083254 73.61177375 25.59369056 69.30433905 24.49780273 65.05078125 C24.05859375 62.98046875 24.05859375 62.98046875 24 59 C26.03864359 56.77435301 27.663023 55.33369354 30.0625 53.625 C34.49634063 50.23102556 34.49634063 50.23102556 36.390625 45.1796875 C35.83348994 42.59729119 35.09635199 40.39854966 34 38 C33.67 37.01 33.34 36.02 33 35 C32.05640625 34.81824219 32.05640625 34.81824219 31.09375 34.6328125 C30.2378125 34.46523437 29.381875 34.29765625 28.5 34.125 C27.6646875 33.96257812 26.829375 33.80015625 25.96875 33.6328125 C24.9890625 33.42398438 24.009375 33.21515625 23 33 C22.01688843 32.87588745 22.01688843 32.87588745 21.01391602 32.74926758 C15.72107939 31.87644399 15.72107939 31.87644399 13.72412109 29.44921875 C12.67253409 27.47933734 11.78033161 25.50522128 10.9375 23.4375 C9.79829786 20.6650148 8.66307488 18.55648715 7 16 C4.69 15.67 2.38 15.34 0 15 C0 10.05 0 5.1 0 0 Z " fill="#FC9D56" transform="translate(128,136)"/>
<path d="M0 0 C2.31 0 4.62 0 7 0 C7.72703125 1.58941406 7.72703125 1.58941406 8.46875 3.2109375 C9.14435397 4.599679 9.82152041 5.98766114 10.5 7.375 C10.97179687 8.42300781 10.97179687 8.42300781 11.453125 9.4921875 C13.40218591 13.42018335 13.40218591 13.42018335 16.87963867 15.89868164 C18.92735115 16.42794176 20.89910287 16.76627585 23 17 C24.41732422 17.19142578 24.41732422 17.19142578 25.86328125 17.38671875 C26.67152344 17.48597656 27.47976562 17.58523437 28.3125 17.6875 C30.859375 18.1875 30.859375 18.1875 33 19 C35.0625 22.1875 35.0625 22.1875 36 26 C36.37125 27.155 36.7425 28.31 37.125 29.5 C36.98277232 33.48237514 36.54779831 33.96240781 33.875 36.6875 C31.7261637 38.61960818 29.66024122 40.21634009 27.21484375 41.7734375 C24.62284487 43.86393915 24.62284487 43.86393915 24.94921875 47.27734375 C25.19285156 48.48519531 25.43648437 49.69304687 25.6875 50.9375 C27.46804131 60.23809287 27.46804131 60.23809287 27 63 C24.8125 65.23828125 24.8125 65.23828125 22 67.3125 C21.071875 68.00988281 20.14375 68.70726562 19.1875 69.42578125 C18.465625 69.94527344 17.74375 70.46476562 17 71 C11.18516892 68.67406757 5.60158708 65.80079354 0 63 C0 42.21 0 21.42 0 0 Z " fill="#FEC548" transform="translate(128,151)"/>
<path d="M0 0 C2.31 0 4.62 0 7 0 C7 20.46 7 40.92 7 62 C-7 70 -7 70 -12 69 C-15.23145128 67.4953208 -17.76330667 65.79728229 -20 63 C-20.59174054 58.79365156 -19.59106869 54.77009517 -18.2578125 50.77734375 C-17.55223154 48.11450054 -17.30272251 46.69701671 -18 44 C-19.99662954 41.93442211 -21.96605776 40.06426311 -24.125 38.1875 C-29.89549941 33.13892412 -29.89549941 33.13892412 -30.30859375 28.63671875 C-29.55095816 25.32454221 -28.86041059 22.84860873 -27 20 C-23.1208544 17.69421415 -19.60714242 17.9432194 -15.1875 17.875 C-10.29970078 17.3156737 -10.29970078 17.3156737 -6.57373047 14.34375 C-3.7628497 9.83071875 -1.82578539 4.97838375 0 0 Z " fill="#FFEF65" transform="translate(121,151)"/>
<path d="M0 0 C1.65644745 2.48467118 2.50256082 4.13427319 3.41738892 6.88467407 C3.68097702 7.66986923 3.94456512 8.45506439 4.21614075 9.26405334 C4.49882309 10.12131516 4.78150543 10.97857697 5.07275391 11.86181641 C5.37540665 12.76773026 5.67805939 13.6736441 5.98988342 14.60700989 C6.98980375 17.60376102 7.98325951 20.60261212 8.9765625 23.6015625 C9.66838223 25.68007851 10.36055605 27.75847669 11.05307007 29.83676147 C12.50329035 34.19202643 13.95055649 38.54825761 15.39550781 42.90527344 C17.25218691 48.50363519 19.11409164 54.10024051 20.97793007 59.69622231 C22.406709 63.98670559 23.83378789 68.27775259 25.26023483 72.56901169 C25.94655417 74.63368519 26.63316191 76.69826285 27.32005692 78.7627449 C28.27696274 81.64029941 29.23183037 84.51852153 30.18603516 87.39697266 C30.61613136 88.68893806 30.61613136 88.68893806 31.05491638 90.00700378 C33 95.8853125 33 95.8853125 33 97 C22.11 97 11.22 97 0 97 C0 64.99 0 32.98 0 0 Z " fill="#FC5D60" transform="translate(128,1)"/>
</svg>
