<svg width="725" height="568" viewBox="0 0 725 568" fill="none" xmlns="http://www.w3.org/2000/svg">
<path d="M723.923 274.449C722.865 272.066 697.324 215.413 640.089 158.174C587.098 105.174 495.924 42 362.501 42C229.078 42 137.904 105.174 84.9129 158.174C27.6771 215.413 2.13696 272.066 1.07802 274.449C0.367264 276.047 0 277.777 0 279.526C0 281.275 0.367264 283.004 1.07802 284.602C2.13696 286.986 27.6802 343.623 84.9129 400.85C137.903 453.838 229.081 517 362.501 517C495.921 517 587.098 453.838 640.089 400.85C697.321 343.623 722.865 286.986 723.923 284.602C724.634 283.004 725.001 281.275 725.001 279.526C725.001 277.777 724.634 276.047 723.923 274.449ZM621.763 383.821C549.656 455.605 462.427 492 362.501 492C262.574 492 175.346 455.605 103.239 383.821C72.429 353.198 46.5089 318.022 26.3862 279.524C46.5063 241.016 72.4276 205.83 103.242 175.2C175.349 103.404 262.574 67 362.501 67C462.427 67 549.653 103.404 621.76 175.2C652.573 205.831 678.494 241.016 698.615 279.524C678.494 318.023 652.574 353.199 621.763 383.821ZM362.501 142.027C335.306 142.027 308.722 150.092 286.11 165.2C263.498 180.309 245.874 201.784 235.467 226.908C225.06 252.033 222.337 279.68 227.643 306.352C232.948 333.025 246.044 357.525 265.274 376.755C284.503 395.984 309.003 409.08 335.676 414.385C362.348 419.691 389.995 416.968 415.12 406.561C440.245 396.154 461.719 378.53 476.828 355.918C491.936 333.307 500.001 306.722 500.001 279.527C499.96 243.073 485.46 208.123 459.682 182.346C433.905 156.568 398.955 142.069 362.501 142.027ZM362.501 392.027C340.25 392.027 318.5 385.429 299.999 373.068C281.499 360.706 267.079 343.136 258.564 322.579C250.049 302.023 247.822 279.403 252.162 257.58C256.503 235.757 267.218 215.711 282.951 199.978C298.685 184.245 318.73 173.53 340.553 169.189C362.376 164.848 384.996 167.076 405.553 175.591C426.109 184.106 443.679 198.525 456.041 217.026C468.403 235.526 475.001 257.277 475.001 279.527C474.967 309.354 463.104 337.949 442.013 359.04C420.923 380.13 392.327 391.994 362.501 392.027Z" fill="#777777"/>
<line x1="581.54" y1="15.4799" x2="138.48" y2="556.46" stroke="#777777" stroke-width="22" stroke-linecap="round"/>
</svg>
